<?xml version="1.0" standalone="no"?>
<!DOCTYPE svg PUBLIC "-//W3C//DTD SVG 20010904//EN"
 "http://www.w3.org/TR/2001/REC-SVG-20010904/DTD/svg10.dtd">
<svg version="1.0" xmlns="http://www.w3.org/2000/svg"
 width="138.000000pt" height="138.000000pt" viewBox="0 0 138.000000 138.000000"
 preserveAspectRatio="xMidYMid meet">
<metadata>
Created by potrace 1.14, written by Peter Selinger 2001-2017
</metadata>
<g transform="translate(0.000000,138.000000) scale(0.100000,-0.100000)"
fill="#000000" stroke="none">
<path d="M19 908 c-1 -2 -2 -60 -3 -130 -1 -109 1 -128 14 -129 116 -4 120 -4
120 14 0 14 -9 17 -50 17 -41 0 -50 3 -51 18 -1 9 -1 61 -1 115 1 78 -2 97
-14 97 -8 0 -15 -1 -15 -2z"/>
<path d="M373 898 c-6 -7 -13 -25 -17 -40 -3 -16 -11 -28 -16 -28 -15 0 -12
-27 3 -33 10 -4 13 -25 12 -76 -2 -61 0 -71 15 -71 14 0 16 11 15 71 -1 51 2
72 12 76 17 7 17 33 -1 33 -17 0 -9 41 11 53 7 4 13 12 13 17 0 14 -36 12 -47
-2z"/>
<path d="M453 890 c3 -11 -1 -27 -9 -34 -17 -18 -18 -33 -2 -38 7 -3 12 -29
13 -70 1 -72 14 -98 51 -98 17 0 22 4 18 15 -4 8 -12 15 -20 15 -8 0 -15 10
-15 23 -4 61 1 112 10 115 16 5 13 32 -3 32 -10 0 -13 9 -10 30 5 26 2 30 -17
30 -16 0 -20 -5 -16 -20z"/>
<path d="M540 781 c0 -120 2 -131 18 -131 16 0 18 8 17 55 -1 47 2 55 17 55
21 0 20 21 -2 35 -11 7 -16 26 -15 60 0 40 -4 50 -17 53 -16 3 -18 -8 -18
-127z"/>
<path d="M659 898 c-1 -7 -2 -30 -3 -51 -1 -26 -8 -43 -20 -53 -19 -14 -15
-29 7 -29 8 0 12 -20 11 -58 0 -49 2 -57 18 -57 16 0 18 11 18 130 0 109 -2
130 -15 130 -8 0 -16 -6 -16 -12z"/>
<path d="M190 830 c-16 -16 -20 -33 -20 -84 0 -58 3 -67 27 -86 20 -16 28 -18
35 -8 5 8 0 19 -13 31 -18 15 -21 25 -17 73 3 39 10 59 22 66 9 5 14 13 11 19
-9 14 -23 11 -45 -11z"/>
<path d="M250 836 c0 -7 7 -19 15 -26 10 -8 15 -31 15 -67 0 -38 -4 -55 -15
-59 -19 -8 -20 -34 -2 -34 31 0 47 35 47 102 0 50 -4 69 -18 81 -23 21 -42 22
-42 3z"/>
<path d="M736 831 c-11 -12 -19 -39 -20 -73 -4 -69 15 -107 52 -108 17 0 15
27 -3 34 -11 4 -15 21 -15 66 0 45 4 62 15 66 19 8 20 34 2 34 -8 0 -22 -9
-31 -19z"/>
<path d="M790 843 c0 -3 8 -15 17 -25 24 -27 25 -113 1 -135 -23 -21 -23 -33
1 -33 31 0 43 26 46 95 1 51 -2 69 -17 85 -18 19 -48 28 -48 13z"/>
<path d="M880 772 c0 -54 5 -84 16 -100 17 -25 51 -30 51 -7 0 8 -6 15 -14 15
-7 0 -14 8 -15 18 -2 18 -6 90 -7 130 -1 12 -7 22 -16 22 -12 0 -15 -15 -15
-78z"/>
<path d="M990 770 c0 -62 -3 -82 -15 -86 -21 -9 -19 -34 4 -34 32 0 44 27 46
103 2 82 -1 97 -21 97 -11 0 -14 -18 -14 -80z"/>
<path d="M1068 838 c-41 -34 -25 -82 32 -99 55 -17 67 -33 41 -56 -26 -22 -27
-33 -2 -33 36 0 63 58 40 86 -6 8 -29 19 -51 26 -46 14 -57 31 -34 57 9 10 16
21 16 24 0 11 -25 8 -42 -5z"/>
<path d="M1120 840 c0 -13 37 -50 49 -50 20 0 20 18 0 38 -21 23 -49 29 -49
12z"/>
<path d="M1232 834 c-19 -13 -22 -24 -22 -84 0 -70 14 -100 46 -100 19 0 18
26 -2 34 -9 3 -14 15 -12 28 3 20 9 23 53 23 45 0 50 3 53 24 6 36 -6 69 -29
82 -30 16 -49 -5 -20 -23 11 -7 21 -22 21 -33 0 -19 -12 -22 -72 -16 -13 2 -9
29 7 45 16 16 20 36 7 36 -4 0 -18 -7 -30 -16z"/>
<path d="M1046 702 c-9 -14 24 -52 45 -52 24 0 24 12 2 32 -28 23 -41 29 -47
20z"/>
<path d="M1308 686 c-21 -16 -24 -36 -5 -36 14 0 47 31 47 43 0 11 -24 7 -42
-7z"/>
<path d="M628 453 c6 -2 18 -2 25 0 6 3 1 5 -13 5 -14 0 -19 -2 -12 -5z"/>
<path d="M70 431 c0 -5 5 -13 10 -16 6 -3 10 -2 10 4 0 5 -4 13 -10 16 -5 3
-10 2 -10 -4z"/>
<path d="M100 431 c0 -8 -10 -25 -22 -38 -12 -13 -16 -23 -10 -23 6 0 16 8 21
18 10 16 10 16 11 -1 0 -10 5 -15 10 -12 6 4 7 12 3 18 -3 7 4 3 17 -8 l23
-20 -13 25 c-9 17 -10 25 -1 28 6 2 11 8 11 14 0 6 -7 5 -16 -3 -13 -10 -17
-10 -25 2 -8 12 -9 12 -9 0z"/>
<path d="M171 408 c-1 -43 12 -49 31 -15 l12 22 7 -25 c6 -22 7 -20 8 13 1 44
-10 48 -30 10 l-14 -26 -6 29 c-6 27 -7 27 -8 -8z"/>
<path d="M247 432 c6 -4 13 -21 16 -37 l4 -30 2 32 c0 21 7 33 19 36 9 3 1 5
-18 6 -19 0 -30 -3 -23 -7z"/>
<path d="M315 423 c1 -10 -2 -26 -7 -35 -5 -12 -5 -18 2 -18 9 0 12 6 14 39 1
8 7 16 14 19 8 2 12 -8 13 -30 0 -27 2 -29 8 -13 13 32 6 50 -22 53 -20 2 -25
-1 -22 -15z"/>
<path d="M384 416 c-7 -30 1 -46 25 -46 29 0 45 25 31 49 -15 29 -48 27 -56
-3z m44 -14 c2 -14 -2 -22 -12 -22 -19 0 -29 17 -22 36 8 22 30 12 34 -14z"/>
<path d="M460 405 c0 -34 2 -36 28 -33 23 3 27 8 27 33 -1 25 -5 31 -28 33
-25 3 -27 1 -27 -33z m40 15 c0 -5 -7 -10 -15 -10 -8 0 -15 5 -15 10 0 6 7 10
15 10 8 0 15 -4 15 -10z m5 -30 c3 -5 -3 -10 -14 -10 -12 0 -21 5 -21 10 0 6
6 10 14 10 8 0 18 -4 21 -10z"/>
<path d="M534 404 c0 -33 15 -42 24 -14 3 7 0 10 -6 6 -6 -4 -8 1 -5 13 3 10
1 21 -4 24 -4 3 -9 -10 -9 -29z"/>
<path d="M566 424 c-8 -22 -8 -26 4 -19 6 3 10 -4 10 -17 0 -16 3 -19 9 -10 9
15 3 62 -9 62 -4 0 -11 -7 -14 -16z"/>
<path d="M610 405 c0 -40 14 -45 32 -12 l12 22 7 -25 c6 -22 7 -20 8 13 1 20
-3 37 -9 37 -5 0 -10 -4 -10 -8 0 -5 -7 -17 -16 -28 -15 -18 -15 -18 -11 9 2
15 0 27 -4 27 -5 0 -9 -16 -9 -35z"/>
<path d="M730 440 c-6 -17 -4 -70 2 -70 4 0 8 8 8 18 1 16 1 16 14 0 18 -25
29 -23 16 3 -9 15 -8 24 1 35 7 8 7 14 1 14 -5 0 -13 -8 -17 -17 -7 -17 -8
-16 -15 2 -5 11 -9 18 -10 15z"/>
<path d="M794 426 c-10 -26 1 -51 24 -54 26 -4 47 34 30 56 -14 16 -47 15 -54
-2z m46 -21 c0 -25 -23 -35 -35 -15 -10 16 2 40 20 40 9 0 15 -9 15 -25z"/>
<path d="M871 403 c1 -33 2 -35 8 -13 l7 25 8 -22 c4 -13 12 -23 18 -23 5 0 8
3 6 8 -37 75 -49 81 -47 25z"/>
<path d="M926 424 c-9 -23 -8 -26 6 -18 8 5 9 2 5 -9 -3 -9 -2 -19 3 -22 6 -4
10 9 10 29 0 37 -13 48 -24 20z"/>
<path d="M972 403 c1 -37 1 -37 5 -5 3 19 10 32 19 32 9 0 14 -11 15 -32 0
-27 2 -29 8 -13 13 33 6 50 -22 53 -25 3 -27 1 -25 -35z"/>
<path d="M1048 405 c-2 -19 -1 -35 3 -35 4 0 9 12 11 27 5 39 26 40 31 1 l4
-33 1 38 c2 33 -1 37 -22 37 -20 0 -25 -6 -28 -35z"/>
<path d="M1122 428 c-15 -19 4 -58 27 -58 11 0 22 4 25 9 3 4 -6 6 -19 3 -15
-2 -25 0 -25 7 0 6 12 11 26 11 20 0 25 4 20 16 -3 9 -6 18 -6 20 0 10 -38 3
-48 -8z m43 -8 c3 -5 -3 -10 -15 -10 -12 0 -18 5 -15 10 3 6 10 10 15 10 5 0
12 -4 15 -10z"/>
<path d="M1194 405 c0 -35 16 -51 16 -17 1 16 1 16 14 0 18 -25 29 -23 16 3
-9 15 -8 24 1 35 6 8 8 14 4 14 -4 0 -14 -8 -21 -17 -13 -17 -13 -17 -14 0 0
33 -16 17 -16 -18z"/>
<path d="M1264 416 c-3 -14 -3 -30 1 -35 8 -14 42 -14 50 -1 4 6 -4 9 -17 7
-17 -1 -23 3 -23 18 0 14 6 20 22 19 12 0 20 3 17 8 -11 18 -44 7 -50 -16z"/>
</g>
</svg>
