<svg width="20" height="20" viewBox="0 0 20 20" fill="none" xmlns="http://www.w3.org/2000/svg">
<g clip-path="url(#clip0_73118_14)">
<path d="M3.33333 0C1.50559 0 0 1.50559 0 3.33333V16.6667C0 18.4944 1.50559 20 3.33333 20H16.6667C18.4944 20 20 18.4944 20 16.6667V3.33333C20 1.50559 18.4944 0 16.6667 0H3.33333ZM3.33333 2.22222H16.6667C17.2945 2.22222 17.7778 2.70552 17.7778 3.33333V16.6667C17.7778 17.2945 17.2945 17.7778 16.6667 17.7778H3.33333C2.70552 17.7778 2.22222 17.2945 2.22222 16.6667V3.33333C2.22222 2.70552 2.70552 2.22222 3.33333 2.22222ZM10 4.44444V12.2222C10 12.85 9.5167 13.3333 8.88889 13.3333C8.26108 13.3333 7.77778 12.85 7.77778 12.2222C7.77778 11.5944 8.26108 11.1111 8.88889 11.1111V8.88889C7.06114 8.88889 5.55556 10.3945 5.55556 12.2222C5.55556 14.05 7.06114 15.5556 8.88889 15.5556C10.7166 15.5556 12.2222 14.05 12.2222 12.2222V8.03602C12.9068 8.52371 13.6212 8.88889 14.4444 8.88889V6.66667C14.3919 6.66667 13.6252 6.42326 13.0903 5.95703C12.5554 5.4908 12.2222 4.90555 12.2222 4.44444H10Z" fill="white"/>
</g>
<defs>
<clipPath id="clip0_73118_14">
<rect width="20" height="20" fill="white"/>
</clipPath>
</defs>
</svg>
