<svg width="20" height="20" fill="none" xmlns="http://www.w3.org/2000/svg"><g clip-path="url(#clip0_73118_14)"><path d="M3.333 0A3.35 3.35 0 000 3.333v13.334A3.35 3.35 0 003.333 20h13.334A3.35 3.35 0 0020 16.667V3.333A3.35 3.35 0 0016.667 0H3.333zm0 2.222h13.334c.627 0 1.11.484 1.11 1.111v13.334c0 .627-.483 1.11-1.11 1.11H3.333a1.093 1.093 0 01-1.11-1.11V3.333c0-.627.483-1.11 1.11-1.11zM10 4.444v7.778c0 .628-.483 1.111-1.111 1.111a1.093 1.093 0 01-1.111-1.11c0-.629.483-1.112 1.11-1.112V8.89a3.35 3.35 0 00-3.332 3.333 3.35 3.35 0 003.333 3.334 3.35 3.35 0 003.333-3.334V8.036c.685.488 1.4.853 2.222.853V6.667c-.052 0-.819-.244-1.354-.71-.535-.466-.868-1.051-.868-1.513H10z" fill="#fff"/></g><defs><clipPath id="clip0_73118_14"><path fill="#fff" d="M0 0h20v20H0z"/></clipPath></defs></svg>