<svg width="134" height="66" viewBox="0 0 134 66" fill="none" xmlns="http://www.w3.org/2000/svg">
<path d="M1.44141 37V12.3906H4.5V33.9766H14.6602V37H1.44141ZM16.6289 31.7969V23.1133C16.6289 22.0117 17.1211 20.9336 18.1055 19.8789C19.3242 18.6133 20.8477 17.9805 22.6758 17.9805V20.8281C21.293 20.8281 20.332 21.4023 19.793 22.5508C19.6289 22.9023 19.5469 23.2539 19.5469 23.6055V31.3398C19.5469 32.207 19.9453 32.9453 20.7422 33.5547C21.3047 33.9766 21.9492 34.1875 22.6758 34.1875V37.0352C20.4492 37.0352 18.7266 36.1328 17.5078 34.3281C16.9219 33.4375 16.6289 32.5938 16.6289 31.7969ZM24.1875 37.0352V34.1875C25.4297 34.1875 26.3203 33.625 26.8594 32.5C27.0469 32.125 27.1406 31.7617 27.1406 31.4102V23.6055C27.1406 22.6445 26.7305 21.8828 25.9102 21.3203C25.3945 20.9922 24.8086 20.8281 24.1523 20.8281V17.9805C26.3086 17.9805 27.9727 18.8594 29.1445 20.6172C29.7305 21.4844 30.0234 22.3164 30.0234 23.1133V31.7969C30.0234 32.9453 29.5312 34.0586 28.5469 35.1367C27.3984 36.3789 25.9453 37.0117 24.1875 37.0352ZM32.168 22.4102V19.5273H34.4883V17.4883C34.4883 16.1758 34.9219 14.9805 35.7891 13.9023C36.75 12.7773 37.9922 12.2031 39.5156 12.1797H40.8164L40.1484 15.0273H39.4805C38.1445 15.0977 37.4648 15.918 37.4414 17.4883V19.5625L39.832 19.5273V22.4102H37.4414V37H34.4883V22.4102H32.168ZM41.8008 21.0391V18.1914H44.1211V12.1094H47.1094V18.1914H49.3594V21.0742H47.1094V31.1641C47.1094 32.8281 47.7891 33.7539 49.1484 33.9414C49.4062 33.9883 49.6641 34.0117 49.9219 34.0117H50.4141L51.082 37H49.8164C46.9336 36.9766 45.1641 35.8984 44.5078 33.7656C44.2734 32.9688 44.1562 31.9844 44.1562 30.8125L44.1211 21.0391H41.8008ZM52.6641 37V12.3906H55.7227V23.1133H58.8867V26.1016H55.7227V37H52.6641ZM60.6445 26.1016V23.1133H63.7734V12.3906H66.8672V37H63.7734V26.1016H60.6445ZM69.6094 31.7969V23.1133C69.6094 22.0117 70.1016 20.9336 71.0859 19.8789C72.3047 18.6133 73.8281 17.9805 75.6562 17.9805V20.8281C74.2734 20.8281 73.3125 21.4023 72.7734 22.5508C72.6094 22.9023 72.5273 23.2539 72.5273 23.6055V31.3398C72.5273 32.207 72.9258 32.9453 73.7227 33.5547C74.2852 33.9766 74.9297 34.1875 75.6562 34.1875V37.0352C73.4297 37.0352 71.707 36.1328 70.4883 34.3281C69.9023 33.4375 69.6094 32.5938 69.6094 31.7969ZM77.168 37.0352V34.1875C78.4102 34.1875 79.3008 33.625 79.8398 32.5C80.0273 32.125 80.1211 31.7617 80.1211 31.4102V23.6055C80.1211 22.6445 79.7109 21.8828 78.8906 21.3203C78.375 20.9922 77.7891 20.8281 77.1328 20.8281V17.9805C79.2891 17.9805 80.9531 18.8594 82.125 20.6172C82.7109 21.4844 83.0039 22.3164 83.0039 23.1133V31.7969C83.0039 32.9453 82.5117 34.0586 81.5273 35.1367C80.3789 36.3789 78.9258 37.0117 77.168 37.0352ZM85.6758 31.9375V18.0156H88.6641V31.5859C88.6641 32.4297 89.0859 33.1328 89.9297 33.6953C90.4922 34.0469 91.1133 34.2227 91.793 34.2227V37.1758C89.543 37.1758 87.8086 36.2969 86.5898 34.5391C85.9805 33.6484 85.6758 32.7812 85.6758 31.9375ZM93.3398 37.1758V34.2227C94.6055 34.2227 95.5312 33.7188 96.1172 32.7109C96.3281 32.3359 96.4336 31.9609 96.4336 31.5859V18.0156H99.4219V31.9375C99.4219 33.0391 98.918 34.1289 97.9102 35.207C96.6914 36.4961 95.168 37.1523 93.3398 37.1758ZM101.461 32.0078L104.238 31.4805C104.238 32.5352 104.789 33.3672 105.891 33.9766C106.43 34.2344 106.945 34.375 107.438 34.3984V37.1758C105.164 37.1758 103.465 36.3555 102.34 34.7148C101.754 33.8477 101.461 32.9453 101.461 32.0078ZM101.637 23.3594C101.637 21.2266 102.609 19.6445 104.555 18.6133C105.492 18.1211 106.43 17.875 107.367 17.875V20.6172C106.289 20.6172 105.457 21.0625 104.871 21.9531C104.566 22.3984 104.414 22.8672 104.414 23.3594C104.414 24.1094 105 24.7188 106.172 25.1875C107.062 25.5625 108.785 26.0547 111.34 26.6641C112.934 26.9922 114.07 27.7773 114.75 29.0195C115.102 29.6758 115.277 30.4141 115.277 31.2344C115.277 33.4844 114.375 35.1484 112.57 36.2266C111.516 36.8594 110.309 37.1758 108.949 37.1758V34.3984C110.027 34.3984 110.93 34.0234 111.656 33.2734C112.172 32.7344 112.43 32.1016 112.43 31.375C112.43 30.4375 111.504 29.6875 109.652 29.125C109.184 28.9844 108.434 28.7852 107.402 28.5273C106.301 28.2695 105.504 28.0586 105.012 27.8945C103.23 27.1914 102.152 26.125 101.777 24.6953C101.684 24.2734 101.637 23.8281 101.637 23.3594ZM108.914 20.6523V17.875C110.93 17.875 112.559 18.625 113.801 20.125C114.574 21.0859 114.961 22.0938 114.961 23.1484L112.184 23.6055C112.184 22.3164 111.48 21.4141 110.074 20.8984C109.652 20.7344 109.266 20.6523 108.914 20.6523ZM117.352 31.7969V23.0781C117.375 22 117.891 20.9336 118.898 19.8789C120.117 18.6367 121.594 18.0039 123.328 17.9805V20.7578C122.203 20.7578 121.324 21.25 120.691 22.2344C120.434 22.6562 120.305 23.043 120.305 23.3945V25.7852H128.18V23.3945C128.18 22.3398 127.641 21.5664 126.562 21.0742C126.07 20.8398 125.566 20.7227 125.051 20.7227V17.9805C126.668 17.9805 128.109 18.5547 129.375 19.7031C130.43 20.7109 130.969 21.8242 130.992 23.043V28.6328H120.305V31.7969C120.305 32.4531 120.68 33.0625 121.43 33.625C122.039 34.0469 122.684 34.2578 123.363 34.2578V37C121.23 37 119.555 36.1328 118.336 34.3984C117.68 33.4844 117.352 32.6172 117.352 31.7969ZM125.051 37V34.2227C126.457 34.2227 127.512 33.6133 128.215 32.3945C128.355 32.1367 128.461 31.8906 128.531 31.6562L131.027 32.5703C130.605 34.1875 129.645 35.4062 128.145 36.2266C127.184 36.7422 126.152 37 125.051 37Z" fill="white"/>
<path d="M3.9822 64L6.86288 60.3991L4.01913 56.9091H5.31175L7.67538 59.9375H8.26629V56.9091H9.35578V59.9375H9.92822L12.2919 56.9091H13.5845L10.7592 60.3991L13.6214 64H12.3103L9.90976 60.9531H9.35578V64H8.26629V60.9531H7.71231L5.29328 64H3.9822ZM16.2678 62.3935L19.684 56.9091H20.9397V64H19.8502V58.5156L16.4525 64H15.1783V56.9091H16.2678V62.3935ZM21.9703 57.9247V56.9091H27.7317V57.9247H25.405V64H24.3155V57.9247H21.9703ZM28.0964 64V62.9844H28.3549C28.5672 62.9844 28.7442 62.9428 28.8858 62.8597C29.0274 62.7736 29.1412 62.6243 29.2274 62.4119C29.3167 62.1965 29.3844 61.898 29.4305 61.5163C29.4798 61.1316 29.5152 60.6423 29.5367 60.0483L29.666 56.9091H34.3932V64H33.3038V57.9247H30.7001L30.5893 60.4545C30.5646 61.0362 30.5123 61.5487 30.4323 61.9918C30.3554 62.4319 30.2369 62.8013 30.0768 63.0998C29.9199 63.3983 29.7106 63.623 29.449 63.7738C29.1874 63.9246 28.8596 64 28.4657 64H28.0964ZM39.2729 64.1477C38.6327 64.1477 38.071 63.9954 37.5878 63.6907C37.1077 63.386 36.7323 62.9598 36.4614 62.4119C36.1937 61.8641 36.0598 61.224 36.0598 60.4915C36.0598 59.7528 36.1937 59.1081 36.4614 58.5572C36.7323 58.0063 37.1077 57.5785 37.5878 57.2738C38.071 56.9691 38.6327 56.8168 39.2729 56.8168C39.913 56.8168 40.4731 56.9691 40.9533 57.2738C41.4364 57.5785 41.8119 58.0063 42.0797 58.5572C42.3505 59.1081 42.4859 59.7528 42.4859 60.4915C42.4859 61.224 42.3505 61.8641 42.0797 62.4119C41.8119 62.9598 41.4364 63.386 40.9533 63.6907C40.4731 63.9954 39.913 64.1477 39.2729 64.1477ZM39.2729 63.169C39.7591 63.169 40.1592 63.0444 40.4731 62.7951C40.7871 62.5458 41.0194 62.218 41.1702 61.8118C41.321 61.4055 41.3964 60.9654 41.3964 60.4915C41.3964 60.0175 41.321 59.5759 41.1702 59.1665C41.0194 58.7572 40.7871 58.4264 40.4731 58.174C40.1592 57.9216 39.7591 57.7955 39.2729 57.7955C38.7866 57.7955 38.3865 57.9216 38.0726 58.174C37.7587 58.4264 37.5263 58.7572 37.3755 59.1665C37.2247 59.5759 37.1493 60.0175 37.1493 60.4915C37.1493 60.9654 37.2247 61.4055 37.3755 61.8118C37.5263 62.218 37.7587 62.5458 38.0726 62.7951C38.3865 63.0444 38.7866 63.169 39.2729 63.169ZM44.149 64V56.9091H47.0482C47.8114 56.9091 48.4177 57.0814 48.8671 57.4261C49.3164 57.7708 49.5411 58.2263 49.5411 58.7926C49.5411 59.2235 49.4133 59.5574 49.1579 59.7944C48.9024 60.0283 48.5747 60.1868 48.1746 60.2699C48.4362 60.3068 48.6901 60.3991 48.9363 60.5469C49.1856 60.6946 49.3918 60.8977 49.5549 61.1562C49.718 61.4117 49.7996 61.7256 49.7996 62.098C49.7996 62.4612 49.7073 62.7859 49.5226 63.0721C49.3379 63.3583 49.0733 63.5845 48.7286 63.7507C48.3839 63.9169 47.9715 64 47.4913 64H44.149ZM45.1831 63.0028H47.4913C47.8668 63.0028 48.1607 62.9136 48.3731 62.7351C48.5854 62.5566 48.6916 62.3134 48.6916 62.0057C48.6916 61.6394 48.5854 61.3517 48.3731 61.1424C48.1607 60.93 47.8668 60.8239 47.4913 60.8239H45.1831V63.0028ZM45.1831 59.8821H47.0482C47.3405 59.8821 47.5914 59.8421 47.8006 59.7621C48.0099 59.679 48.17 59.562 48.2808 59.4112C48.3946 59.2573 48.4516 59.0758 48.4516 58.8665C48.4516 58.5679 48.3269 58.334 48.0776 58.1648C47.8283 57.9924 47.4852 57.9062 47.0482 57.9062H45.1831V59.8821ZM52.5383 62.3935L55.9545 56.9091H57.2102V64H56.1207V58.5156L52.723 64H51.4488V56.9091H52.5383V62.3935ZM60.2951 62.3935L63.7113 56.9091H64.967V64H63.8775V58.5156L60.4798 64H59.2057V56.9091H60.2951V62.3935ZM62.9912 54.5455H64.0068C64.0068 55.044 63.8344 55.4518 63.4897 55.7688C63.145 56.0858 62.6772 56.2443 62.0863 56.2443C61.5047 56.2443 61.0415 56.0858 60.6968 55.7688C60.3552 55.4518 60.1843 55.044 60.1843 54.5455H61.2C61.2 54.7855 61.2661 54.9963 61.3985 55.1779C61.5339 55.3595 61.7632 55.4503 62.0863 55.4503C62.4095 55.4503 62.6403 55.3595 62.7788 55.1779C62.9204 54.9963 62.9912 54.7855 62.9912 54.5455ZM70.6187 64V56.9091H71.7082V59.9929H72.4284L74.9767 56.9091H76.3801L73.5179 60.3253L76.417 64H75.0136L72.6869 61.0085H71.7082V64H70.6187ZM80.1899 64.1477C79.5497 64.1477 78.988 63.9954 78.5048 63.6907C78.0247 63.386 77.6493 62.9598 77.3784 62.4119C77.1107 61.8641 76.9768 61.224 76.9768 60.4915C76.9768 59.7528 77.1107 59.1081 77.3784 58.5572C77.6493 58.0063 78.0247 57.5785 78.5048 57.2738C78.988 56.9691 79.5497 56.8168 80.1899 56.8168C80.83 56.8168 81.3901 56.9691 81.8703 57.2738C82.3534 57.5785 82.7289 58.0063 82.9967 58.5572C83.2675 59.1081 83.4029 59.7528 83.4029 60.4915C83.4029 61.224 83.2675 61.8641 82.9967 62.4119C82.7289 62.9598 82.3534 63.386 81.8703 63.6907C81.3901 63.9954 80.83 64.1477 80.1899 64.1477ZM80.1899 63.169C80.6761 63.169 81.0762 63.0444 81.3901 62.7951C81.7041 62.5458 81.9364 62.218 82.0872 61.8118C82.238 61.4055 82.3134 60.9654 82.3134 60.4915C82.3134 60.0175 82.238 59.5759 82.0872 59.1665C81.9364 58.7572 81.7041 58.4264 81.3901 58.174C81.0762 57.9216 80.6761 57.7955 80.1899 57.7955C79.7036 57.7955 79.3035 57.9216 78.9896 58.174C78.6756 58.4264 78.4433 58.7572 78.2925 59.1665C78.1417 59.5759 78.0663 60.0175 78.0663 60.4915C78.0663 60.9654 78.1417 61.4055 78.2925 61.8118C78.4433 62.218 78.6756 62.5458 78.9896 62.7951C79.3035 63.0444 79.7036 63.169 80.1899 63.169ZM88.9438 62.5227L91.4183 56.9091H92.4524L89.387 64H88.5007L85.4907 56.9091H86.5063L88.9438 62.5227ZM86.1555 56.9091V64H85.066V56.9091H86.1555ZM91.7322 64V56.9091H92.8217V64H91.7322ZM94.816 64V56.9091H100.393V64H99.3032V57.9247H95.9055V64H94.816ZM101.755 64V62.9844H102.013C102.225 62.9844 102.402 62.9428 102.544 62.8597C102.686 62.7736 102.799 62.6243 102.886 62.4119C102.975 62.1965 103.043 61.898 103.089 61.5163C103.138 61.1316 103.173 60.6423 103.195 60.0483L103.324 56.9091H108.051V64H106.962V57.9247H104.358L104.247 60.4545C104.223 61.0362 104.171 61.5487 104.091 61.9918C104.014 62.4319 103.895 62.8013 103.735 63.0998C103.578 63.3983 103.369 63.623 103.107 63.7738C102.846 63.9246 102.518 64 102.124 64H101.755ZM113.023 64.1477C112.34 64.1477 111.751 63.9969 111.255 63.6953C110.763 63.3906 110.383 62.9659 110.115 62.4212C109.85 61.8733 109.718 61.2363 109.718 60.5099C109.718 59.7836 109.85 59.1435 110.115 58.5895C110.383 58.0324 110.755 57.5985 111.232 57.2876C111.712 56.9737 112.272 56.8168 112.913 56.8168C113.282 56.8168 113.647 56.8783 114.007 57.0014C114.367 57.1245 114.695 57.3246 114.99 57.6016C115.285 57.8755 115.521 58.2386 115.696 58.6911C115.872 59.1435 115.959 59.7005 115.959 60.3622V60.8239H110.494V59.8821H114.852C114.852 59.482 114.771 59.125 114.611 58.8111C114.455 58.4972 114.23 58.2494 113.937 58.0678C113.648 57.8862 113.307 57.7955 112.913 57.7955C112.479 57.7955 112.103 57.9032 111.786 58.1186C111.472 58.331 111.231 58.608 111.061 58.9496C110.892 59.2912 110.807 59.6574 110.807 60.0483V60.6761C110.807 61.2116 110.9 61.6656 111.084 62.038C111.272 62.4073 111.532 62.6889 111.865 62.8828C112.197 63.0736 112.583 63.169 113.023 63.169C113.31 63.169 113.568 63.129 113.799 63.049C114.033 62.9659 114.234 62.8428 114.404 62.6797C114.573 62.5135 114.704 62.3073 114.796 62.0611L115.849 62.3565C115.738 62.7135 115.552 63.0275 115.29 63.2983C115.028 63.5661 114.705 63.7753 114.321 63.9261C113.936 64.0739 113.504 64.1477 113.023 64.1477ZM117.617 64V56.9091H118.706V59.9929H119.426L121.975 56.9091H123.378L120.516 60.3253L123.415 64H122.012L119.685 61.0085H118.706V64H117.617ZM127.188 64.1477C126.523 64.1477 125.951 63.9908 125.471 63.6768C124.99 63.3629 124.621 62.9305 124.363 62.3796C124.104 61.8287 123.975 61.1993 123.975 60.4915C123.975 59.7713 124.107 59.1358 124.372 58.5849C124.64 58.0309 125.012 57.5985 125.489 57.2876C125.969 56.9737 126.529 56.8168 127.169 56.8168C127.668 56.8168 128.117 56.9091 128.517 57.0938C128.918 57.2784 129.245 57.5369 129.501 57.8693C129.756 58.2017 129.915 58.5895 129.976 59.0327H128.887C128.804 58.7095 128.619 58.4233 128.333 58.174C128.05 57.9216 127.668 57.7955 127.188 57.7955C126.763 57.7955 126.391 57.9062 126.071 58.1278C125.754 58.3464 125.506 58.6557 125.327 59.0558C125.152 59.4528 125.064 59.919 125.064 60.4545C125.064 61.0024 125.15 61.4794 125.323 61.8857C125.498 62.2919 125.744 62.6074 126.061 62.832C126.382 63.0567 126.757 63.169 127.188 63.169C127.471 63.169 127.728 63.1198 127.959 63.0213C128.19 62.9228 128.385 62.7812 128.545 62.5966C128.705 62.4119 128.819 62.1903 128.887 61.9318H129.976C129.915 62.3504 129.762 62.7274 129.519 63.0629C129.279 63.3952 128.961 63.6599 128.564 63.8569C128.17 64.0508 127.711 64.1477 127.188 64.1477Z" fill="white"/>
</svg>
